<svg width="60" height="60" viewBox="0 0 60 60" fill="none" xmlns="http://www.w3.org/2000/svg">
<path opacity="0.3" fill-rule="evenodd" clip-rule="evenodd" d="M10.0381 31.25H25.1572C25.7122 33.4065 27.6698 35 29.9996 35C32.3294 35 34.2871 33.4065 34.8421 31.25H49.9612C49.316 41.7134 40.6255 50 29.9996 50C19.3738 50 10.6833 41.7134 10.0381 31.25Z" fill="#40C2FF"/>
<path fill-rule="evenodd" clip-rule="evenodd" d="M10.0381 28.75C10.6833 18.2866 19.3738 10 29.9997 10C40.6255 10 49.316 18.2866 49.9612 28.75H35.8693C35.2942 26.0363 32.8847 24 29.9997 24C27.1146 24 24.7051 26.0363 24.1301 28.75H10.0381Z" fill="#40C2FF"/>
<ellipse rx="3" ry="3" transform="matrix(-4.37114e-08 1 1 4.37114e-08 30 30)" fill="#40C2FF"/>
</svg>
