<svg width="60" height="60" viewBox="0 0 60 60" fill="none" xmlns="http://www.w3.org/2000/svg">
<path fill-rule="evenodd" clip-rule="evenodd" d="M16.7134 18.1795C17.7188 19.1258 17.7668 20.708 16.8205 21.7134L8.43312 30.625L16.8205 39.5366C17.7668 40.542 17.7188 42.1242 16.7134 43.0705C15.708 44.0168 14.1258 43.9689 13.1795 42.9634L3.1795 32.3384C2.2735 31.3758 2.2735 29.8742 3.1795 28.9116L13.1795 18.2866C14.1258 17.2812 15.708 17.2332 16.7134 18.1795ZM43.2866 18.1795C42.2812 19.1258 42.2332 20.708 43.1795 21.7134L51.5669 30.625L43.1795 39.5366C42.2332 40.542 42.2812 42.1242 43.2866 43.0705C44.292 44.0168 45.8742 43.9689 46.8205 42.9634L56.8205 32.3384C57.7265 31.3758 57.7265 29.8742 56.8205 28.9116L46.8205 18.2866C45.8742 17.2812 44.292 17.2332 43.2866 18.1795Z" fill="#40C2FF"/>
<rect opacity="0.3" x="32.7617" y="10.0344" width="5" height="40" rx="1" transform="rotate(15 32.7617 10.0344)" fill="#40C2FF"/>
</svg>
