<svg width="60" height="60" viewBox="0 0 60 60" fill="none" xmlns="http://www.w3.org/2000/svg">
<path opacity="0.3" fill-rule="evenodd" clip-rule="evenodd" d="M13.5 20C12.9477 20 12.5 20.4477 12.5 21V39C12.5 39.5523 12.9477 40 13.5 40H16.5C17.0523 40 17.5 39.5523 17.5 39V32.5H37.5C43.0228 32.5 47.5 28.0228 47.5 22.5V20H42.5V22.5C42.5 25.2614 40.2614 27.5 37.5 27.5H17.5V21C17.5 20.4477 17.0523 20 16.5 20H13.5Z" fill="#40C2FF"/>
<path fill-rule="evenodd" clip-rule="evenodd" d="M5 47.5C5 53.0228 9.47715 57.5 15 57.5C20.5228 57.5 25 53.0228 25 47.5C25 41.9772 20.5228 37.5 15 37.5C9.47715 37.5 5 41.9772 5 47.5ZM20 47.5C20 50.2614 17.7614 52.5 15 52.5C12.2386 52.5 10 50.2614 10 47.5C10 44.7386 12.2386 42.5 15 42.5C17.7614 42.5 20 44.7386 20 47.5Z" fill="#40C2FF"/>
<path fill-rule="evenodd" clip-rule="evenodd" d="M35 12.5C35 18.0228 39.4772 22.5 45 22.5C50.5228 22.5 55 18.0228 55 12.5C55 6.97715 50.5228 2.5 45 2.5C39.4772 2.5 35 6.97715 35 12.5ZM50 12.5C50 15.2614 47.7614 17.5 45 17.5C42.2386 17.5 40 15.2614 40 12.5C40 9.73858 42.2386 7.5 45 7.5C47.7614 7.5 50 9.73858 50 12.5Z" fill="#40C2FF"/>
<path fill-rule="evenodd" clip-rule="evenodd" d="M5 12.5C5 18.0228 9.47715 22.5 15 22.5C20.5228 22.5 25 18.0228 25 12.5C25 6.97715 20.5228 2.5 15 2.5C9.47715 2.5 5 6.97715 5 12.5ZM20 12.5C20 15.2614 17.7614 17.5 15 17.5C12.2386 17.5 10 15.2614 10 12.5C10 9.73858 12.2386 7.5 15 7.5C17.7614 7.5 20 9.73858 20 12.5Z" fill="#40C2FF"/>
</svg>
