<svg width="60" height="60" viewBox="0 0 60 60" fill="none" xmlns="http://www.w3.org/2000/svg">
<path opacity="0.3" fill-rule="evenodd" clip-rule="evenodd" d="M7.61719 34.2436L12.3828 35.7564C15.7799 25.0557 21.5578 20 30 20C38.4422 20 44.2201 25.0557 47.6172 35.7564L52.3828 34.2436C48.3725 21.611 40.817 15 30 15C19.1829 15 11.6275 21.611 7.61719 34.2436ZM30 15C31.3807 15 32.5 16.1193 32.5 17.5C32.5 18.8807 31.3807 20 30 20C28.6193 20 27.5 18.8807 27.5 17.5C27.5 16.1193 28.6193 15 30 15Z" fill="#40C2FF"/>
<path fill-rule="evenodd" clip-rule="evenodd" d="M30 25C33.2655 25 36.0436 22.913 37.0732 20H45.6689C46.5334 21.4945 48.1493 22.5 50 22.5C52.7614 22.5 55 20.2614 55 17.5C55 14.7386 52.7614 12.5 50 12.5C48.1493 12.5 46.5334 13.5055 45.6689 15H37.0732C36.0436 12.087 33.2655 10 30 10C26.7345 10 23.9564 12.087 22.9268 15H14.3311C13.4666 13.5055 11.8507 12.5 10 12.5C7.23858 12.5 5 14.7386 5 17.5C5 20.2614 7.23858 22.5 10 22.5C11.8507 22.5 13.4666 21.4945 14.3311 20H22.9268C23.9564 22.913 26.7345 25 30 25ZM32.5 17.5C32.5 18.8807 31.3807 20 30 20C28.6193 20 27.5 18.8807 27.5 17.5C27.5 16.1193 28.6193 15 30 15C31.3807 15 32.5 16.1193 32.5 17.5ZM10 47.5C14.1421 47.5 17.5 44.1421 17.5 40C17.5 35.8579 14.1421 32.5 10 32.5C5.85786 32.5 2.5 35.8579 2.5 40C2.5 44.1421 5.85786 47.5 10 47.5ZM12.5 40C12.5 41.3807 11.3807 42.5 10 42.5C8.61929 42.5 7.5 41.3807 7.5 40C7.5 38.6193 8.61929 37.5 10 37.5C11.3807 37.5 12.5 38.6193 12.5 40ZM50 47.5C54.1421 47.5 57.5 44.1421 57.5 40C57.5 35.8579 54.1421 32.5 50 32.5C45.8579 32.5 42.5 35.8579 42.5 40C42.5 44.1421 45.8579 47.5 50 47.5ZM52.5 40C52.5 41.3807 51.3807 42.5 50 42.5C48.6193 42.5 47.5 41.3807 47.5 40C47.5 38.6193 48.6193 37.5 50 37.5C51.3807 37.5 52.5 38.6193 52.5 40Z" fill="#40C2FF"/>
</svg>
