<svg width="22" height="22" viewBox="0 0 22 22" fill="none" xmlns="http://www.w3.org/2000/svg">
<path fill-rule="evenodd" clip-rule="evenodd" d="M11.3342 0C8.43725 0 8.07369 0.0126668 6.9359 0.0644451C5.80033 0.116446 5.02522 0.296225 4.34699 0.560006C3.64542 0.832453 3.05031 1.1969 2.45741 1.79002C1.86407 2.38291 1.49962 2.97803 1.22629 3.67937C0.96184 4.35782 0.781838 5.13316 0.730727 6.26829C0.679837 7.40608 0.666504 7.76986 0.666504 10.6668C0.666504 13.5637 0.679393 13.9261 0.730949 15.0639C0.783172 16.1995 0.962951 16.9746 1.22651 17.6529C1.49918 18.3544 1.86363 18.9495 2.45674 19.5424C3.04942 20.1358 3.64453 20.5011 4.34565 20.7736C5.02433 21.0373 5.79967 21.2171 6.93501 21.2691C8.0728 21.3209 8.43614 21.3336 11.3328 21.3336C14.23 21.3336 14.5924 21.3209 15.7302 21.2691C16.8658 21.2171 17.6418 21.0373 18.3205 20.7736C19.0218 20.5011 19.616 20.1358 20.2087 19.5424C20.802 18.9495 21.1665 18.3544 21.4398 17.6531C21.7021 16.9746 21.8821 16.1993 21.9354 15.0642C21.9865 13.9264 21.9998 13.5637 21.9998 10.6668C21.9998 7.76986 21.9865 7.4063 21.9354 6.26851C21.8821 5.13294 21.7021 4.35782 21.4398 3.67959C21.1665 2.97803 20.802 2.38291 20.2087 1.79002C19.6154 1.19668 19.022 0.832231 18.3198 0.560006C17.6398 0.296225 16.8642 0.116446 15.7287 0.0644451C14.5909 0.0126668 14.2286 0 11.3308 0H11.3342ZM10.3775 1.92222C10.6615 1.92178 10.9784 1.92222 11.3344 1.92222C14.1824 1.92222 14.52 1.93244 15.6446 1.98356C16.6847 2.03111 17.2491 2.20489 17.6251 2.35089C18.1229 2.54423 18.4778 2.77534 18.8509 3.14868C19.2242 3.52202 19.4554 3.87758 19.6491 4.37536C19.7951 4.75092 19.9691 5.31537 20.0165 6.35538C20.0676 7.47984 20.0787 7.81762 20.0787 10.6643C20.0787 13.511 20.0676 13.8488 20.0165 14.9732C19.9689 16.0133 19.7951 16.5777 19.6491 16.9533C19.4558 17.4511 19.2242 17.8055 18.8509 18.1786C18.4776 18.552 18.1231 18.7831 17.6251 18.9764C17.2496 19.1231 16.6847 19.2964 15.6446 19.344C14.5202 19.3951 14.1824 19.4062 11.3344 19.4062C8.48613 19.4062 8.14857 19.3951 7.02411 19.344C5.9841 19.296 5.41965 19.1222 5.04342 18.9762C4.54564 18.7828 4.19008 18.5517 3.81675 18.1784C3.44341 17.8051 3.21229 17.4504 3.01851 16.9524C2.87251 16.5768 2.69851 16.0124 2.65118 14.9724C2.60007 13.8479 2.58984 13.5101 2.58984 10.6616C2.58984 7.81317 2.60007 7.47717 2.65118 6.35271C2.69873 5.3127 2.87251 4.74825 3.01851 4.37225C3.21185 3.87446 3.44341 3.51891 3.81675 3.14557C4.19008 2.77223 4.54564 2.54112 5.04342 2.34734C5.41943 2.20067 5.9841 2.02733 7.02411 1.97956C8.00812 1.93511 8.38946 1.92178 10.3775 1.91956V1.92222ZM17.0281 3.69336C16.3214 3.69336 15.748 4.26603 15.748 4.97293C15.748 5.6796 16.3214 6.25294 17.0281 6.25294C17.7347 6.25294 18.3081 5.6796 18.3081 4.97293C18.3081 4.26625 17.7347 3.69291 17.0281 3.69291V3.69336ZM11.3343 5.18892C8.30914 5.18892 5.85645 7.64162 5.85645 10.6668C5.85645 13.6919 8.30914 16.1435 11.3343 16.1435C14.3594 16.1435 16.8112 13.6919 16.8112 10.6668C16.8112 7.64162 14.3592 5.18892 11.3341 5.18892H11.3343ZM11.3344 7.11112C13.298 7.11112 14.89 8.70292 14.89 10.6667C14.89 12.6303 13.298 14.2223 11.3344 14.2223C9.3706 14.2223 7.77881 12.6303 7.77881 10.6667C7.77881 8.70292 9.3706 7.11112 11.3344 7.11112Z" fill="#8D9AAD"/>
</svg>
