<svg width="60" height="60" viewBox="0 0 60 60" fill="none" xmlns="http://www.w3.org/2000/svg">
<rect width="60" height="60" rx="12" fill="url(#paint0_linear)"/>
<path d="M23 37H38C38.5523 37 39 37.4477 39 38C39 38.5523 38.5523 39 38 39H22C21.4477 39 21 38.5523 21 38V22C21 21.4477 21.4477 21 22 21C22.5523 21 23 21.4477 23 22V37Z" fill="white"/>
<path opacity="0.5" d="M26.7295 32.684C26.3518 33.0869 25.719 33.1073 25.3161 32.7296C24.9131 32.3518 24.8927 31.719 25.2705 31.3161L29.0205 27.3161C29.3858 26.9264 29.9928 26.8926 30.3991 27.2394L33.3589 29.765L37.2151 24.8804C37.5573 24.4469 38.1862 24.3729 38.6196 24.7152C39.0531 25.0574 39.1271 25.6862 38.7849 26.1197L34.2849 31.8197C33.9334 32.2649 33.2824 32.3289 32.8509 31.9607L29.8268 29.3802L26.7295 32.684Z" fill="white"/>
<defs>
<linearGradient id="paint0_linear" x1="0" y1="0" x2="60" y2="57.5" gradientUnits="userSpaceOnUse">
<stop stop-color="#8BBBFF"/>
<stop offset="1" stop-color="#4084E3"/>
</linearGradient>
</defs>
</svg>
