<svg width="22" height="21" viewBox="0 0 22 21" fill="none" xmlns="http://www.w3.org/2000/svg">
<path fill-rule="evenodd" clip-rule="evenodd" d="M5.43222 3.01924C5.4028 1.68399 4.44796 0.666992 2.89745 0.666992C1.34693 0.666992 0.333252 1.68399 0.333252 3.01924C0.333252 4.32683 1.31697 5.37312 2.83861 5.37312H2.86758C4.44796 5.37312 5.43222 4.32683 5.43222 3.01924ZM5.13376 7.23185H0.601318V20.8499H5.13376V7.23185ZM16.2609 6.91211C19.2435 6.91211 21.4795 8.85889 21.4795 13.0418L21.4793 20.85H16.947V13.5643C16.947 11.7343 16.2912 10.4855 14.6504 10.4855C13.3982 10.4855 12.6524 11.3274 12.3248 12.1405C12.205 12.4319 12.1756 12.8379 12.1756 13.2449V20.8503H7.64258C7.64258 20.8503 7.70232 8.5101 7.64258 7.23225H12.1756V9.16114C12.7771 8.23389 13.8545 6.91211 16.2609 6.91211Z" fill="#8D9AAD"/>
</svg>
