<svg width="161" height="117" viewBox="0 0 161 117" fill="none" xmlns="http://www.w3.org/2000/svg">
<path d="M0.952759 8.8898C0.952759 3.9801 4.93286 0 9.84256 0H151.524C156.433 0 160.414 3.9801 160.414 8.8898V107.789C160.414 112.699 156.433 116.679 151.524 116.679H9.84256C4.93286 116.679 0.952759 112.699 0.952759 107.789V8.8898Z" fill="white"/>
<path d="M14.2877 20.0021C14.2877 16.3198 17.2728 13.3347 20.9551 13.3347H40.9571C44.6394 13.3347 47.6245 16.3198 47.6245 20.0021V40.0041C47.6245 43.6864 44.6394 46.6715 40.9571 46.6715H20.9551C17.2728 46.6715 14.2877 43.6864 14.2877 40.0041V20.0021Z" fill="url(#paint0_linear)"/>
<path opacity="0.5" d="M25.4 30.5585C25.4 30.2807 25.6778 30.0029 25.9556 30.0029C26.2334 30.0029 26.5112 30.2807 26.5112 30.5585C26.5112 30.8363 26.5112 33.3366 26.5112 33.3366C26.5112 33.9503 27.0088 34.4478 27.6225 34.4478H34.2898C34.9035 34.4478 35.4011 33.9503 35.4011 33.3366V30.5585C35.4011 30.2517 35.6498 30.0029 35.9567 30.0029C36.2635 30.0029 36.5123 30.2517 36.5123 30.5585V33.3366C36.5123 34.564 35.5173 35.5591 34.2898 35.5591H27.6225C26.395 35.5591 25.4 34.564 25.4 33.3366C25.4 33.3366 25.4 30.8363 25.4 30.5585Z" fill="white"/>
<path d="M31.5117 31.1143C31.5117 31.4212 31.263 31.6699 30.9561 31.6699C30.6493 31.6699 30.4005 31.4212 30.4005 31.1143V24.447C30.4005 24.1401 30.6493 23.8913 30.9561 23.8913C31.263 23.8913 31.5117 24.1401 31.5117 24.447V31.1143Z" fill="white"/>
<path d="M33.3413 28.499C33.5583 28.2821 33.9101 28.2821 34.1271 28.499C34.344 28.716 34.344 29.0678 34.1271 29.2848L31.349 32.0628C31.14 32.2718 30.8041 32.2806 30.5844 32.083L27.8064 29.5827C27.5783 29.3774 27.5598 29.0261 27.7651 28.798C27.9703 28.5699 28.3217 28.5515 28.5497 28.7567L30.936 30.9044L33.3413 28.499Z" fill="white"/>
<path d="M14.8479 72.3407V70.3339H18.5972V81.675H16.3569V72.3407H14.8479Z" fill="#1B2D41"/>
<path d="M21.4333 79.217C22.429 78.3873 23.2224 77.6976 23.8136 77.1479C24.4047 76.5879 24.8974 76.0071 25.2915 75.4055C25.6856 74.804 25.8827 74.2128 25.8827 73.632C25.8827 73.103 25.7582 72.6882 25.5093 72.3874C25.2604 72.0866 24.8766 71.9363 24.3581 71.9363C23.8395 71.9363 23.4402 72.1126 23.1602 72.4652C22.8801 72.8075 22.7349 73.2794 22.7246 73.8809H20.6088C20.6503 72.6363 21.0185 71.6925 21.7133 71.0495C22.4186 70.4065 23.3105 70.085 24.3892 70.085C25.5715 70.085 26.479 70.4013 27.1117 71.0339C27.7443 71.6562 28.0607 72.4808 28.0607 73.5075C28.0607 74.3165 27.8429 75.0892 27.4073 75.8256C26.9717 76.5619 26.4738 77.205 25.9138 77.7546C25.3537 78.294 24.6225 78.9474 23.7202 79.7148H28.3096V81.5195H20.6243V79.9015L21.4333 79.217Z" fill="#1B2D41"/>
<path d="M29.682 75.8567C29.682 74.0624 30.0035 72.6571 30.6466 71.6407C31.3 70.6243 32.3786 70.1161 33.8824 70.1161C35.3863 70.1161 36.4597 70.6243 37.1028 71.6407C37.7562 72.6571 38.0829 74.0624 38.0829 75.8567C38.0829 77.6613 37.7562 79.077 37.1028 80.1038C36.4597 81.1305 35.3863 81.6439 33.8824 81.6439C32.3786 81.6439 31.3 81.1305 30.6466 80.1038C30.0035 79.077 29.682 77.6613 29.682 75.8567ZM35.936 75.8567C35.936 75.0892 35.8841 74.4461 35.7804 73.9276C35.6871 73.3986 35.49 72.9682 35.1892 72.6363C34.8988 72.3044 34.4632 72.1385 33.8824 72.1385C33.3016 72.1385 32.8609 72.3044 32.5601 72.6363C32.2697 72.9682 32.0726 73.3986 31.9689 73.9276C31.8756 74.4461 31.8289 75.0892 31.8289 75.8567C31.8289 76.6449 31.8756 77.3087 31.9689 77.848C32.0623 78.3769 32.2593 78.8073 32.5601 79.1392C32.8609 79.4607 33.3016 79.6215 33.8824 79.6215C34.4632 79.6215 34.904 79.4607 35.2048 79.1392C35.5056 78.8073 35.7026 78.3769 35.796 77.848C35.8893 77.3087 35.936 76.6449 35.936 75.8567Z" fill="#1B2D41"/>
<path d="M42.3686 79.3881L40.5484 83.7597H39.1483L40.1595 79.3881H42.3686Z" fill="#1B2D41"/>
<path d="M45.5875 75.67C44.5504 75.1307 44.0318 74.2958 44.0318 73.1653C44.0318 72.6052 44.1718 72.097 44.4518 71.6407C44.7422 71.174 45.1726 70.8058 45.7431 70.5361C46.3239 70.2561 47.0291 70.1161 47.8588 70.1161C48.6886 70.1161 49.3886 70.2561 49.9591 70.5361C50.5399 70.8058 50.9703 71.174 51.2503 71.6407C51.5407 72.097 51.6859 72.6052 51.6859 73.1653C51.6859 73.7357 51.5459 74.2387 51.2659 74.6743C50.9858 75.0995 50.6125 75.4314 50.1457 75.67C50.7162 75.9189 51.1621 76.2819 51.4837 76.759C51.8052 77.2361 51.9659 77.8013 51.9659 78.4547C51.9659 79.16 51.7844 79.7771 51.4214 80.306C51.0688 80.8246 50.5813 81.2239 49.9591 81.5039C49.3368 81.7839 48.6367 81.924 47.8588 81.924C47.081 81.924 46.3809 81.7839 45.7586 81.5039C45.1467 81.2239 44.6593 80.8246 44.2963 80.306C43.9436 79.7771 43.7673 79.16 43.7673 78.4547C43.7673 77.8013 43.9281 77.2361 44.2496 76.759C44.5711 76.2715 45.0171 75.9085 45.5875 75.67ZM49.5701 73.4764C49.5701 72.9682 49.4146 72.5741 49.1034 72.2941C48.8026 72.014 48.3878 71.874 47.8588 71.874C47.3403 71.874 46.9254 72.014 46.6143 72.2941C46.3135 72.5741 46.1631 72.9734 46.1631 73.492C46.1631 73.9587 46.3187 74.3321 46.6298 74.6121C46.9513 74.8921 47.361 75.0321 47.8588 75.0321C48.3567 75.0321 48.7663 74.8921 49.0879 74.6121C49.4094 74.3217 49.5701 73.9431 49.5701 73.4764ZM47.8588 76.619C47.2677 76.619 46.7854 76.7694 46.412 77.0701C46.049 77.3709 45.8675 77.8013 45.8675 78.3614C45.8675 78.8799 46.0438 79.3052 46.3965 79.6371C46.7595 79.9586 47.2469 80.1193 47.8588 80.1193C48.4708 80.1193 48.953 79.9534 49.3057 79.6215C49.6583 79.2896 49.8346 78.8696 49.8346 78.3614C49.8346 77.8117 49.6531 77.3865 49.2901 77.0857C48.9271 76.7745 48.45 76.619 47.8588 76.619Z" fill="#1B2D41"/>
<path d="M53.6862 75.8567C53.6862 74.0624 54.0077 72.6571 54.6507 71.6407C55.3041 70.6243 56.3828 70.1161 57.8866 70.1161C59.3905 70.1161 60.4639 70.6243 61.107 71.6407C61.7604 72.6571 62.0871 74.0624 62.0871 75.8567C62.0871 77.6613 61.7604 79.077 61.107 80.1038C60.4639 81.1305 59.3905 81.6439 57.8866 81.6439C56.3828 81.6439 55.3041 81.1305 54.6507 80.1038C54.0077 79.077 53.6862 77.6613 53.6862 75.8567ZM59.9402 75.8567C59.9402 75.0892 59.8883 74.4461 59.7846 73.9276C59.6913 73.3986 59.4942 72.9682 59.1934 72.6363C58.903 72.3044 58.4674 72.1385 57.8866 72.1385C57.3058 72.1385 56.8651 72.3044 56.5643 72.6363C56.2739 72.9682 56.0768 73.3986 55.9731 73.9276C55.8798 74.4461 55.8331 75.0892 55.8331 75.8567C55.8331 76.6449 55.8798 77.3087 55.9731 77.848C56.0664 78.3769 56.2635 78.8073 56.5643 79.1392C56.8651 79.4607 57.3058 79.6215 57.8866 79.6215C58.4674 79.6215 58.9082 79.4607 59.209 79.1392C59.5098 78.8073 59.7068 78.3769 59.8002 77.848C59.8935 77.3087 59.9402 76.6449 59.9402 75.8567Z" fill="#1B2D41"/>
<path d="M63.6503 79.4659V77.7546L68.7375 70.4739H71.2733V77.568H72.6424V79.4659H71.2733V81.675H69.0953V79.4659H63.6503ZM69.2353 72.8075L66.0461 77.568H69.2353V72.8075Z" fill="#1B2D41"/>
<path d="M15.7457 93.743V100.01H14.9368V93.743H15.7457Z" fill="#8D9AAD"/>
<path d="M19.6155 95.0498C20.1845 95.0498 20.6438 95.2336 20.9934 95.601C21.3431 95.9625 21.5179 96.487 21.5179 97.1745V100.01H20.709V97.2456C20.709 96.7596 20.5845 96.3863 20.3356 96.1255C20.0867 95.8647 19.7489 95.7343 19.3221 95.7343C18.8777 95.7343 18.5221 95.8795 18.2554 96.1699C17.9887 96.4544 17.8553 96.8722 17.8553 97.4234V100.01H17.0464V95.1298H17.8553V96.2855C17.9798 95.8884 18.1991 95.5832 18.5132 95.3699C18.8332 95.1565 19.2007 95.0498 19.6155 95.0498Z" fill="#8D9AAD"/>
<path d="M24.2878 95.0676C24.839 95.0676 25.2805 95.2128 25.6124 95.5032C25.9502 95.7877 26.1547 96.1729 26.2258 96.6589H25.4524C25.4168 96.3685 25.2953 96.1314 25.0879 95.9477C24.8864 95.758 24.6138 95.6632 24.27 95.6632C23.9796 95.6632 23.7514 95.7343 23.5855 95.8766C23.4255 96.0129 23.3455 96.1996 23.3455 96.4366C23.3455 96.6144 23.3988 96.7596 23.5055 96.8722C23.6181 96.9789 23.7544 97.0619 23.9144 97.1212C24.0804 97.1745 24.3056 97.2338 24.59 97.2989C24.9516 97.3819 25.242 97.4679 25.4612 97.5568C25.6865 97.6397 25.8761 97.776 26.0302 97.9657C26.1902 98.1553 26.2702 98.4102 26.2702 98.7302C26.2702 99.1273 26.1191 99.4503 25.8168 99.6992C25.5205 99.9481 25.1234 100.073 24.6256 100.073C24.0448 100.073 23.5707 99.9333 23.2032 99.6547C22.8358 99.3762 22.6195 98.988 22.5543 98.4902H23.3366C23.3662 98.7865 23.4936 99.0265 23.7188 99.2103C23.95 99.394 24.2522 99.4858 24.6256 99.4858C24.9042 99.4858 25.1205 99.4147 25.2746 99.2725C25.4346 99.1302 25.5146 98.9436 25.5146 98.7124C25.5146 98.5228 25.4583 98.3717 25.3457 98.259C25.2331 98.1464 25.0938 98.0605 24.9279 98.0012C24.7619 97.942 24.5337 97.8797 24.2433 97.8146C23.8818 97.7316 23.5914 97.6486 23.3721 97.5656C23.1588 97.4827 22.9751 97.3523 22.821 97.1745C22.6728 96.9908 22.5987 96.7448 22.5987 96.4366C22.5987 96.0277 22.7499 95.6988 23.0521 95.4499C23.3544 95.195 23.7663 95.0676 24.2878 95.0676Z" fill="#8D9AAD"/>
<path d="M29.6804 99.2992V100.01H29.0759C28.578 100.01 28.2047 99.8918 27.9557 99.6547C27.7128 99.4177 27.5913 99.0206 27.5913 98.4635V95.8321H26.8623V95.1298H27.5913V93.9119H28.4091V95.1298H29.6715V95.8321H28.4091V98.4813C28.4091 98.7954 28.4654 99.0117 28.578 99.1302C28.6966 99.2429 28.8981 99.2992 29.1825 99.2992H29.6804Z" fill="#8D9AAD"/>
<path d="M32.6678 95.0676C33.1419 95.0676 33.5419 95.1861 33.8679 95.4232C34.1998 95.6603 34.4309 95.9773 34.5613 96.3744V95.1298H35.3703V100.01H34.5613V98.7658C34.4309 99.1628 34.1998 99.4799 33.8679 99.717C33.5419 99.954 33.1419 100.073 32.6678 100.073C32.2351 100.073 31.8499 99.9718 31.5121 99.7703C31.1743 99.5688 30.9076 99.2814 30.712 98.908C30.5223 98.5287 30.4275 98.0842 30.4275 97.5745C30.4275 97.0648 30.5223 96.6204 30.712 96.2411C30.9076 95.8618 31.1743 95.5714 31.5121 95.3699C31.8499 95.1684 32.2351 95.0676 32.6678 95.0676ZM32.8989 95.7877C32.4011 95.7877 32.001 95.9477 31.6988 96.2677C31.4024 96.5818 31.2543 97.0174 31.2543 97.5745C31.2543 98.1316 31.4024 98.5702 31.6988 98.8902C32.001 99.2043 32.4011 99.3614 32.8989 99.3614C33.2189 99.3614 33.5034 99.2873 33.7523 99.1391C34.0071 98.991 34.2057 98.7835 34.3479 98.5169C34.4902 98.2442 34.5613 97.9301 34.5613 97.5745C34.5613 97.2189 34.4902 96.9048 34.3479 96.6322C34.2057 96.3596 34.0071 96.1522 33.7523 96.0099C33.5034 95.8618 33.2189 95.7877 32.8989 95.7877Z" fill="#8D9AAD"/>
<path d="M37.4667 93.4319V100.01H36.6577V93.4319H37.4667Z" fill="#8D9AAD"/>
<path d="M40.2964 95.0676C40.8475 95.0676 41.2891 95.2128 41.621 95.5032C41.9588 95.7877 42.1632 96.1729 42.2344 96.6589H41.4609C41.4254 96.3685 41.3039 96.1314 41.0965 95.9477C40.895 95.758 40.6223 95.6632 40.2786 95.6632C39.9882 95.6632 39.76 95.7343 39.5941 95.8766C39.4341 96.0129 39.3541 96.1996 39.3541 96.4366C39.3541 96.6144 39.4074 96.7596 39.5141 96.8722C39.6267 96.9789 39.763 97.0619 39.923 97.1212C40.089 97.1745 40.3142 97.2338 40.5986 97.2989C40.9602 97.3819 41.2506 97.4679 41.4698 97.5568C41.695 97.6397 41.8847 97.776 42.0388 97.9657C42.1988 98.1553 42.2788 98.4102 42.2788 98.7302C42.2788 99.1273 42.1277 99.4503 41.8254 99.6992C41.5291 99.9481 41.132 100.073 40.6342 100.073C40.0534 100.073 39.5793 99.9333 39.2118 99.6547C38.8444 99.3762 38.6281 98.988 38.5629 98.4902H39.3452C39.3748 98.7865 39.5022 99.0265 39.7274 99.2103C39.9586 99.394 40.2608 99.4858 40.6342 99.4858C40.9127 99.4858 41.1291 99.4147 41.2831 99.2725C41.4432 99.1302 41.5232 98.9436 41.5232 98.7124C41.5232 98.5228 41.4669 98.3717 41.3543 98.259C41.2417 98.1464 41.1024 98.0605 40.9364 98.0012C40.7705 97.942 40.5423 97.8797 40.2519 97.8146C39.8904 97.7316 39.6 97.6486 39.3807 97.5656C39.1674 97.4827 38.9837 97.3523 38.8296 97.1745C38.6814 96.9908 38.6073 96.7448 38.6073 96.4366C38.6073 96.0277 38.7584 95.6988 39.0607 95.4499C39.363 95.195 39.7748 95.0676 40.2964 95.0676Z" fill="#8D9AAD"/>
<path d="M132.183 28.3362V27.4117H134.032V33.8923H133.009V28.3362H132.183Z" fill="#1B2D41"/>
<path d="M135.984 32.5144C136.553 32.0225 137 31.6195 137.326 31.3054C137.658 30.9854 137.934 30.6535 138.153 30.3097C138.372 29.966 138.482 29.6223 138.482 29.2785C138.482 28.9229 138.396 28.6444 138.224 28.4429C138.058 28.2414 137.795 28.1406 137.433 28.1406C137.083 28.1406 136.811 28.2532 136.615 28.4784C136.426 28.6977 136.325 28.9941 136.313 29.3674H135.335C135.353 28.6918 135.554 28.1762 135.94 27.8206C136.331 27.4591 136.826 27.2783 137.424 27.2783C138.07 27.2783 138.574 27.4561 138.935 27.8117C139.303 28.1673 139.487 28.6414 139.487 29.2341C139.487 29.6608 139.377 30.0727 139.158 30.4698C138.944 30.8609 138.686 31.2135 138.384 31.5276C138.088 31.8358 137.709 32.1944 137.246 32.6033L136.846 32.9589H139.664V33.8034H135.344V33.0656L135.984 32.5144Z" fill="#1B2D41"/>
<path d="M140.395 28.9763C140.395 28.5436 140.519 28.2058 140.768 27.9628C141.023 27.7139 141.349 27.5895 141.746 27.5895C142.143 27.5895 142.466 27.7139 142.715 27.9628C142.97 28.2058 143.097 28.5436 143.097 28.9763C143.097 29.4089 142.97 29.7497 142.715 29.9986C142.466 30.2475 142.143 30.372 141.746 30.372C141.349 30.372 141.023 30.2475 140.768 29.9986C140.519 29.7497 140.395 29.4089 140.395 28.9763ZM145.817 27.705L142.27 33.8923H141.275L144.822 27.705H145.817ZM141.746 28.2029C141.373 28.2029 141.186 28.4607 141.186 28.9763C141.186 29.4978 141.373 29.7586 141.746 29.7586C141.924 29.7586 142.06 29.6963 142.155 29.5719C142.256 29.4415 142.306 29.243 142.306 28.9763C142.306 28.4607 142.119 28.2029 141.746 28.2029ZM144.013 32.6122C144.013 32.1796 144.137 31.8418 144.386 31.5988C144.641 31.3498 144.967 31.2254 145.364 31.2254C145.755 31.2254 146.075 31.3498 146.324 31.5988C146.579 31.8418 146.706 32.1796 146.706 32.6122C146.706 33.0448 146.579 33.3856 146.324 33.6345C146.075 33.8834 145.755 34.0079 145.364 34.0079C144.967 34.0079 144.641 33.8834 144.386 33.6345C144.137 33.3856 144.013 33.0448 144.013 32.6122ZM145.355 31.8388C144.982 31.8388 144.795 32.0966 144.795 32.6122C144.795 33.1278 144.982 33.3856 145.355 33.3856C145.729 33.3856 145.915 33.1278 145.915 32.6122C145.915 32.0966 145.729 31.8388 145.355 31.8388Z" fill="#1B2D41"/>
<path d="M126.522 28.3362L128.928 31.6699H124.116L126.522 28.3362Z" fill="#36D9D8"/>
<defs>
<linearGradient id="paint0_linear" x1="14.2877" y1="13.3347" x2="47.6245" y2="45.2824" gradientUnits="userSpaceOnUse">
<stop stop-color="#5075EC"/>
<stop offset="1" stop-color="#1D4BDF"/>
</linearGradient>
</defs>
</svg>
