<svg width="181" height="73" viewBox="0 0 181 73" fill="none" xmlns="http://www.w3.org/2000/svg">
<path d="M0 8.5654C0 3.86911 3.8071 0.0620117 8.50339 0.0620117H172.194C176.89 0.0620117 180.697 3.86911 180.697 8.5654V63.8374C180.697 68.5337 176.89 72.3408 172.194 72.3408H8.50339C3.8071 72.3408 0 68.5337 0 63.8374V8.5654Z" fill="white"/>
<path d="M164.222 58.5228L167.41 55.334L164.222 52.1453" stroke="#8D9AAD" stroke-width="2" stroke-linecap="round" stroke-linejoin="round"/>
<path d="M37.3556 51.9371C38.0529 51.9371 38.6368 52.11 39.1073 52.4558C39.5835 52.8016 39.9038 53.2721 40.0682 53.8673H39.2518C39.1101 53.5045 38.872 53.2126 38.5376 52.9915C38.2088 52.7704 37.8176 52.6599 37.3641 52.6599C36.9559 52.6599 36.5903 52.7562 36.2672 52.949C35.944 53.136 35.6889 53.4053 35.5018 53.7568C35.3204 54.1083 35.2297 54.5221 35.2297 54.9983C35.2297 55.4858 35.3233 55.9082 35.5104 56.2653C35.6974 56.6168 35.9554 56.8889 36.2842 57.0816C36.6186 57.2687 37.0013 57.3622 37.4321 57.3622C37.8006 57.3622 38.1379 57.2829 38.444 57.1241C38.7501 56.9654 38.9996 56.7358 39.1923 56.4354C39.3907 56.1292 39.5098 55.7721 39.5495 55.3639H37.194V54.7857H40.2042V55.5C40.1532 55.9762 40.0058 56.407 39.762 56.7925C39.5183 57.178 39.1895 57.4841 38.7757 57.7109C38.3618 57.9376 37.8913 58.051 37.3641 58.051C36.7859 58.051 36.2757 57.9235 35.8335 57.6684C35.3913 57.4076 35.0455 57.0476 34.7961 56.5884C34.5523 56.1236 34.4304 55.5935 34.4304 54.9983C34.4304 54.4031 34.5523 53.8758 34.7961 53.4167C35.0455 52.9518 35.3913 52.589 35.8335 52.3282C36.2757 52.0675 36.783 51.9371 37.3556 51.9371Z" fill="#1B2D41"/>
<path d="M43.1661 53.2636C43.6196 53.2636 44.0023 53.377 44.3141 53.6037C44.6315 53.8305 44.8526 54.1338 44.9773 54.5136V53.3231H45.7512V57.9915H44.9773V56.801C44.8526 57.1808 44.6315 57.4841 44.3141 57.7109C44.0023 57.9376 43.6196 58.051 43.1661 58.051C42.7523 58.051 42.3838 57.9546 42.0607 57.7619C41.7376 57.5691 41.4825 57.2942 41.2954 56.9371C41.114 56.5743 41.0233 56.1491 41.0233 55.6616C41.0233 55.174 41.114 54.7489 41.2954 54.386C41.4825 54.0232 41.7376 53.7455 42.0607 53.5527C42.3838 53.36 42.7523 53.2636 43.1661 53.2636ZM43.3872 53.9524C42.911 53.9524 42.5284 54.1054 42.2393 54.4116C41.9558 54.712 41.8141 55.1287 41.8141 55.6616C41.8141 56.1944 41.9558 56.6139 42.2393 56.9201C42.5284 57.2205 42.911 57.3707 43.3872 57.3707C43.6933 57.3707 43.9654 57.2999 44.2035 57.1581C44.4473 57.0164 44.6372 56.818 44.7733 56.5629C44.9093 56.3021 44.9773 56.0017 44.9773 55.6616C44.9773 55.3214 44.9093 55.021 44.7733 54.7602C44.6372 54.4994 44.4473 54.301 44.2035 54.165C43.9654 54.0232 43.6933 53.9524 43.3872 53.9524Z" fill="#1B2D41"/>
<path d="M47.7565 51.699V57.9915H46.9827V51.699H47.7565Z" fill="#1B2D41"/>
<path d="M49.7744 51.699V57.9915H49.0006V51.699H49.7744Z" fill="#1B2D41"/>
<path d="M55.3127 55.3979C55.3127 55.5623 55.3013 55.7041 55.2787 55.8231H51.5457C51.5627 56.356 51.7129 56.7557 51.9964 57.0221C52.2855 57.2885 52.6369 57.4218 53.0508 57.4218C53.4249 57.4218 53.7367 57.3282 53.9862 57.1411C54.2413 56.9484 54.3971 56.6933 54.4538 56.3758H55.2787C55.222 56.699 55.0944 56.9881 54.896 57.2432C54.7033 57.4983 54.451 57.6967 54.1392 57.8384C53.8274 57.9801 53.4759 58.051 53.0848 58.051C52.6369 58.051 52.2401 57.9546 51.8943 57.7619C51.5485 57.5691 51.2764 57.2942 51.078 56.9371C50.8852 56.5743 50.7889 56.1491 50.7889 55.6616C50.7889 55.174 50.8852 54.7489 51.078 54.386C51.2764 54.0232 51.5485 53.7455 51.8943 53.5527C52.2401 53.36 52.6369 53.2636 53.0848 53.2636C53.5383 53.2636 53.9323 53.36 54.2668 53.5527C54.6069 53.7455 54.8648 54.0034 55.0406 54.3265C55.222 54.6497 55.3127 55.0068 55.3127 55.3979ZM54.5304 55.449C54.5474 55.1032 54.4907 54.814 54.3603 54.5816C54.2299 54.3492 54.0513 54.1763 53.8246 54.0629C53.5978 53.9495 53.3512 53.8928 53.0848 53.8928C52.6596 53.8928 52.3025 54.0261 52.0134 54.2925C51.7243 54.5533 51.5684 54.9388 51.5457 55.449H54.5304Z" fill="#1B2D41"/>
<path d="M57.0986 54.267C57.2517 53.9439 57.4756 53.6944 57.7704 53.5187C58.0651 53.3373 58.4166 53.2466 58.8248 53.2466V54.0884H58.5867C58.1502 54.0884 57.793 54.2018 57.5153 54.4286C57.2375 54.6497 57.0986 55.0181 57.0986 55.534V57.9915H56.3248V53.3231H57.0986V54.267Z" fill="#1B2D41"/>
<path d="M59.9114 53.3231L61.425 56.9966L62.8281 53.3231H63.6869L60.9148 60.2024H60.039L61.0084 57.915L59.0441 53.3231H59.9114Z" fill="#1B2D41"/>
<path fill-rule="evenodd" clip-rule="evenodd" d="M13.8179 51.6139C13.8179 50.7334 14.5317 50.0195 15.4123 50.0195H22.8527C23.7333 50.0195 24.4471 50.7334 24.4471 51.6139V59.0544C24.4471 59.9349 23.7333 60.6488 22.8527 60.6488H15.4123C14.5317 60.6488 13.8179 59.9349 13.8179 59.0544V51.6139ZM15.4123 51.0825C15.1187 51.0825 14.8808 51.3204 14.8808 51.6139V59.0544C14.8808 59.3479 15.1187 59.5858 15.4123 59.5858H22.8527C23.1462 59.5858 23.3842 59.3479 23.3842 59.0544V51.6139C23.3842 51.3204 23.1462 51.0825 22.8527 51.0825H15.4123Z" fill="#1B2D41"/>
<path fill-rule="evenodd" clip-rule="evenodd" d="M15.9436 53.4739C15.9436 52.7401 16.5385 52.1453 17.2723 52.1453C18.0061 52.1453 18.6009 52.7401 18.6009 53.4739C18.6009 54.2077 18.0061 54.8026 17.2723 54.8026C16.5385 54.8026 15.9436 54.2077 15.9436 53.4739ZM17.2723 53.2082C17.1255 53.2082 17.0065 53.3272 17.0065 53.4739C17.0065 53.6207 17.1255 53.7396 17.2723 53.7396C17.419 53.7396 17.538 53.6207 17.538 53.4739C17.538 53.3272 17.419 53.2082 17.2723 53.2082Z" fill="#1B2D41"/>
<path fill-rule="evenodd" clip-rule="evenodd" d="M20.8824 53.8954C21.0899 53.6879 21.4264 53.6879 21.634 53.8954L24.2913 56.5527C24.4988 56.7603 24.4988 57.0968 24.2913 57.3043C24.0837 57.5119 23.7472 57.5119 23.5397 57.3043L21.2582 55.0228L15.7879 60.4931C15.5803 60.7006 15.2438 60.7006 15.0363 60.4931C14.8287 60.2855 14.8287 59.949 15.0363 59.7415L20.8824 53.8954Z" fill="#1B2D41"/>
<path d="M19.2467 15.6062V17.0475H15.535V19.3307H18.3794V20.7465H15.535V24.5092H13.7493V15.6062H19.2467Z" fill="#1B2D41"/>
<path d="M27.0818 20.823C27.0818 21.0781 27.0648 21.3077 27.0308 21.5118H21.865C21.9075 22.022 22.0861 22.4217 22.4007 22.7108C22.7153 22.9999 23.1022 23.1445 23.5614 23.1445C24.2247 23.1445 24.6966 22.8596 24.9772 22.2899H26.9032C26.6992 22.9701 26.308 23.5314 25.7298 23.9735C25.1515 24.4072 24.4415 24.624 23.5997 24.624C22.9194 24.624 22.3072 24.4752 21.7629 24.1776C21.2272 23.8715 20.8063 23.4421 20.5002 22.8894C20.2026 22.3366 20.0538 21.6989 20.0538 20.9761C20.0538 20.2448 20.2026 19.6028 20.5002 19.0501C20.7978 18.4974 21.2145 18.0722 21.7502 17.7746C22.2859 17.4769 22.9024 17.3281 23.5997 17.3281C24.2714 17.3281 24.8709 17.4727 25.3981 17.7618C25.9339 18.0509 26.3463 18.4633 26.6354 18.9991C26.933 19.5263 27.0818 20.1343 27.0818 20.823ZM25.2323 20.3128C25.2238 19.8536 25.058 19.488 24.7349 19.2159C24.4118 18.9353 24.0163 18.795 23.5487 18.795C23.1065 18.795 22.7323 18.931 22.4262 19.2031C22.1286 19.4667 21.9458 19.8366 21.8777 20.3128H25.2323Z" fill="#1B2D41"/>
<path d="M27.926 20.9506C27.926 20.2363 28.0663 19.6028 28.347 19.0501C28.6361 18.4974 29.023 18.0722 29.5077 17.7746C30.0009 17.4769 30.5493 17.3281 31.1531 17.3281C31.6803 17.3281 32.1395 17.4344 32.5306 17.647C32.9303 17.8596 33.2492 18.1275 33.4873 18.4506V17.4429H35.2857V24.5092H33.4873V23.4761C33.2577 23.8077 32.9388 24.0841 32.5306 24.3052C32.131 24.5178 31.6675 24.624 31.1403 24.624C30.5451 24.624 30.0009 24.471 29.5077 24.1649C29.023 23.8587 28.6361 23.4293 28.347 22.8766C28.0663 22.3154 27.926 21.6734 27.926 20.9506ZM33.4873 20.9761C33.4873 20.5424 33.4022 20.1725 33.2322 19.8664C33.0621 19.5518 32.8325 19.3137 32.5434 19.1521C32.2543 18.982 31.9439 18.897 31.6123 18.897C31.2806 18.897 30.9745 18.9778 30.6939 19.1394C30.4133 19.3009 30.1837 19.539 30.0051 19.8536C29.8351 20.1598 29.75 20.5254 29.75 20.9506C29.75 21.3758 29.8351 21.7499 30.0051 22.073C30.1837 22.3877 30.4133 22.63 30.6939 22.8001C30.983 22.9701 31.2891 23.0552 31.6123 23.0552C31.9439 23.0552 32.2543 22.9744 32.5434 22.8128C32.8325 22.6428 33.0621 22.4047 33.2322 22.0985C33.4022 21.7839 33.4873 21.4098 33.4873 20.9761Z" fill="#1B2D41"/>
<path d="M39.1089 18.9098V22.3281C39.1089 22.5662 39.1641 22.7405 39.2747 22.8511C39.3937 22.9531 39.5893 23.0041 39.8614 23.0041H40.6905V24.5092H39.568C38.0629 24.5092 37.3104 23.778 37.3104 22.3154V18.9098H36.4686V17.4429H37.3104V15.6955H39.1089V17.4429H40.6905V18.9098H39.1089Z" fill="#1B2D41"/>
<path d="M48.6458 17.4429V24.5092H46.8473V23.6164C46.6177 23.9225 46.3158 24.1649 45.9417 24.3434C45.5761 24.5135 45.1764 24.5985 44.7427 24.5985C44.19 24.5985 43.7011 24.4837 43.2759 24.2541C42.8507 24.0161 42.5148 23.6717 42.2682 23.221C42.0301 22.7618 41.9111 22.2176 41.9111 21.5883V17.4429H43.6968V21.3332C43.6968 21.8945 43.8371 22.3281 44.1177 22.6343C44.3983 22.9319 44.781 23.0807 45.2657 23.0807C45.7589 23.0807 46.1458 22.9319 46.4264 22.6343C46.707 22.3281 46.8473 21.8945 46.8473 21.3332V17.4429H48.6458Z" fill="#1B2D41"/>
<path d="M52.1934 18.5399C52.423 18.1657 52.7206 17.8724 53.0862 17.6598C53.4604 17.4472 53.8856 17.3409 54.3618 17.3409V19.2159H53.8898C53.3286 19.2159 52.9034 19.3477 52.6143 19.6113C52.3337 19.8749 52.1934 20.3341 52.1934 20.9888V24.5092H50.4077V17.4429H52.1934V18.5399Z" fill="#1B2D41"/>
<path d="M62.1334 20.823C62.1334 21.0781 62.1164 21.3077 62.0824 21.5118H56.9166C56.9591 22.022 57.1376 22.4217 57.4523 22.7108C57.7669 22.9999 58.1538 23.1445 58.613 23.1445C59.2762 23.1445 59.7482 22.8596 60.0288 22.2899H61.9548C61.7507 22.9701 61.3596 23.5314 60.7813 23.9735C60.2031 24.4072 59.4931 24.624 58.6512 24.624C57.971 24.624 57.3587 24.4752 56.8145 24.1776C56.2788 23.8715 55.8579 23.4421 55.5518 22.8894C55.2541 22.3366 55.1053 21.6989 55.1053 20.9761C55.1053 20.2448 55.2541 19.6028 55.5518 19.0501C55.8494 18.4974 56.266 18.0722 56.8018 17.7746C57.3375 17.4769 57.954 17.3281 58.6512 17.3281C59.323 17.3281 59.9225 17.4727 60.4497 17.7618C60.9854 18.0509 61.3978 18.4633 61.687 18.9991C61.9846 19.5263 62.1334 20.1343 62.1334 20.823ZM60.2839 20.3128C60.2754 19.8536 60.1096 19.488 59.7864 19.2159C59.4633 18.9353 59.0679 18.795 58.6002 18.795C58.1581 18.795 57.7839 18.931 57.4778 19.2031C57.1802 19.4667 56.9973 19.8366 56.9293 20.3128H60.2839Z" fill="#1B2D41"/>
<path d="M66.1409 24.624C65.5626 24.624 65.0439 24.522 64.5848 24.3179C64.1256 24.1053 63.7599 23.8205 63.4878 23.4633C63.2242 23.1062 63.0796 22.7108 63.0541 22.2771H64.8526C64.8866 22.5492 65.0184 22.7746 65.248 22.9531C65.4861 23.1317 65.7795 23.221 66.1281 23.221C66.4683 23.221 66.7319 23.153 66.9189 23.0169C67.1145 22.8809 67.2123 22.7065 67.2123 22.4939C67.2123 22.2644 67.0932 22.0943 66.8552 21.9837C66.6256 21.8647 66.2557 21.7371 65.7455 21.6011C65.2183 21.4735 64.7846 21.3417 64.4444 21.2057C64.1128 21.0696 63.8237 20.8613 63.5771 20.5807C63.339 20.3001 63.22 19.9217 63.22 19.4455C63.22 19.0543 63.3305 18.6972 63.5516 18.3741C63.7812 18.0509 64.1043 17.7958 64.521 17.6087C64.9461 17.4217 65.4436 17.3281 66.0133 17.3281C66.8552 17.3281 67.5269 17.5407 68.0286 17.9659C68.5303 18.3826 68.8067 18.948 68.8577 19.6623H67.1485C67.123 19.3817 67.004 19.1606 66.7914 18.9991C66.5873 18.829 66.3109 18.744 65.9623 18.744C65.6392 18.744 65.3883 18.8035 65.2097 18.9225C65.0397 19.0416 64.9546 19.2074 64.9546 19.42C64.9546 19.6581 65.0737 19.8409 65.3118 19.9684C65.5499 20.0875 65.9198 20.2108 66.4215 20.3383C66.9317 20.4659 67.3526 20.5977 67.6842 20.7337C68.0159 20.8698 68.3007 21.0824 68.5388 21.3715C68.7854 21.6521 68.913 22.0263 68.9215 22.4939C68.9215 22.9021 68.8067 23.2678 68.5771 23.5909C68.356 23.914 68.0329 24.1691 67.6077 24.3562C67.191 24.5348 66.7021 24.624 66.1409 24.624Z" fill="#1B2D41"/>
<path d="M147.616 20.6657H145.805V22.5024H145.082V20.6657H143.28V20.0109H145.082V18.1657H145.805V20.0109H147.616V20.6657Z" fill="#40C2FF"/>
<path d="M154.769 22.1283H152.184L151.708 23.4463H150.892L153.035 17.5535H153.928L156.062 23.4463H155.246L154.769 22.1283ZM154.548 21.499L153.477 18.5058L152.406 21.499H154.548Z" fill="#40C2FF"/>
<path d="M156.707 21.0994C156.707 20.6232 156.803 20.2065 156.996 19.8494C157.189 19.4866 157.452 19.206 157.787 19.0075C158.127 18.8091 158.507 18.7099 158.926 18.7099C159.289 18.7099 159.626 18.795 159.938 18.965C160.25 19.1294 160.488 19.3477 160.652 19.6198V17.1538H161.435V23.4463H160.652V22.5705C160.499 22.8482 160.273 23.0778 159.972 23.2592C159.672 23.435 159.32 23.5228 158.918 23.5228C158.504 23.5228 158.127 23.4208 157.787 23.2167C157.452 23.0126 157.189 22.7264 156.996 22.3579C156.803 21.9894 156.707 21.5699 156.707 21.0994ZM160.652 21.1079C160.652 20.7564 160.582 20.4503 160.44 20.1895C160.298 19.9287 160.105 19.7303 159.862 19.5943C159.623 19.4526 159.36 19.3817 159.071 19.3817C158.782 19.3817 158.518 19.4497 158.28 19.5858C158.042 19.7218 157.852 19.9202 157.71 20.181C157.568 20.4418 157.498 20.7479 157.498 21.0994C157.498 21.4565 157.568 21.7683 157.71 22.0348C157.852 22.2955 158.042 22.4968 158.28 22.6385C158.518 22.7745 158.782 22.8426 159.071 22.8426C159.36 22.8426 159.623 22.7745 159.862 22.6385C160.105 22.4968 160.298 22.2955 160.44 22.0348C160.582 21.7683 160.652 21.4594 160.652 21.1079Z" fill="#40C2FF"/>
<path d="M162.453 21.0994C162.453 20.6232 162.55 20.2065 162.742 19.8494C162.935 19.4866 163.199 19.206 163.533 19.0075C163.873 18.8091 164.253 18.7099 164.673 18.7099C165.035 18.7099 165.373 18.795 165.685 18.965C165.996 19.1294 166.234 19.3477 166.399 19.6198V17.1538H167.181V23.4463H166.399V22.5705C166.246 22.8482 166.019 23.0778 165.719 23.2592C165.418 23.435 165.067 23.5228 164.664 23.5228C164.25 23.5228 163.873 23.4208 163.533 23.2167C163.199 23.0126 162.935 22.7264 162.742 22.3579C162.55 21.9894 162.453 21.5699 162.453 21.0994ZM166.399 21.1079C166.399 20.7564 166.328 20.4503 166.186 20.1895C166.044 19.9287 165.852 19.7303 165.608 19.5943C165.37 19.4526 165.106 19.3817 164.817 19.3817C164.528 19.3817 164.264 19.4497 164.026 19.5858C163.788 19.7218 163.598 19.9202 163.457 20.181C163.315 20.4418 163.244 20.7479 163.244 21.0994C163.244 21.4565 163.315 21.7683 163.457 22.0348C163.598 22.2955 163.788 22.4968 164.026 22.6385C164.264 22.7745 164.528 22.8426 164.817 22.8426C165.106 22.8426 165.37 22.7745 165.608 22.6385C165.852 22.4968 166.044 22.2955 166.186 22.0348C166.328 21.7683 166.399 21.4594 166.399 21.1079Z" fill="#40C2FF"/>
</svg>
