<svg width="39" height="40" viewBox="0 0 39 40" fill="none" xmlns="http://www.w3.org/2000/svg">
<rect width="39" height="40" rx="8" fill="#E7FAFF"/>
<path fill-rule="evenodd" clip-rule="evenodd" d="M22.4345 11.2789C23.0932 10.4286 23.5926 9.22678 23.412 8C22.3354 8.07482 21.077 8.76362 20.3427 9.66143C19.6734 10.4749 19.1233 11.6851 19.3381 12.8596C20.5151 12.8964 21.7298 12.191 22.4345 11.2789ZM28.252 22.9519C27.781 24.0017 27.5543 24.4708 26.9475 25.4007C26.1011 26.6987 24.9077 28.3151 23.4274 28.3269C22.1135 28.3412 21.7747 27.4659 19.991 27.4766C18.2073 27.4861 17.8354 28.3436 16.5192 28.3305C15.0401 28.3174 13.9092 26.8591 13.0628 25.561C10.6947 21.9341 10.4457 17.6766 11.9059 15.4119C12.9447 13.8039 14.5832 12.8634 16.1226 12.8634C17.6891 12.8634 18.6748 13.7279 19.9721 13.7279C21.2305 13.7279 21.9966 12.861 23.8087 12.861C25.1804 12.861 26.6335 13.6127 27.6676 14.9096C24.2773 16.7788 24.8262 21.6491 28.252 22.9519Z" fill="#2B353E"/>
</svg>
