<svg width="39" height="40" viewBox="0 0 39 40" fill="none" xmlns="http://www.w3.org/2000/svg">
<rect width="39" height="40" rx="8" fill="#E7FAFF"/>
<path fill-rule="evenodd" clip-rule="evenodd" d="M23.975 22.6598C25.9133 21.5853 27.3935 20.7645 27.5282 20.6898C27.9298 20.4671 28.3506 19.8988 27.5282 19.4446C27.2638 19.2983 25.8234 18.5027 23.9728 17.4801L21.4275 20.078L23.975 22.6598Z" fill="#FFE300"/>
<path fill-rule="evenodd" clip-rule="evenodd" d="M21.4277 20.078L13.2869 28.3867C13.4707 28.4104 13.6918 28.361 13.9462 28.22C14.4727 27.9281 20.1275 24.7929 23.9754 22.6596L21.4277 20.078V20.078Z" fill="#FF4E54"/>
<path fill-rule="evenodd" clip-rule="evenodd" d="M21.4274 20.078L23.9727 17.4801C23.9727 17.4801 14.5123 12.2521 13.9459 11.9392C13.7282 11.8188 13.4908 11.7768 13.2808 11.8242L21.4274 20.078Z" fill="#00F085"/>
<path fill-rule="evenodd" clip-rule="evenodd" d="M21.4275 20.078L13.2807 11.8243C12.9442 11.9004 12.6685 12.1954 12.6685 12.7883C12.6685 13.7515 12.6685 26.5877 12.6685 27.3964C12.6685 27.9548 12.8854 28.3475 13.2865 28.3867L21.4275 20.078Z" fill="#00E0FF"/>
</svg>
