<svg width="20" height="17" viewBox="0 0 20 17" fill="none" xmlns="http://www.w3.org/2000/svg">
<path fill-rule="evenodd" clip-rule="evenodd" d="M9.401 4.92324L9.44297 5.61529L8.74349 5.53055C6.19739 5.20571 3.97304 4.10409 2.08445 2.25393L1.16114 1.33591L0.923313 2.01383C0.419688 3.52503 0.741448 5.12097 1.79067 6.19435C2.35025 6.78753 2.22434 6.87227 1.25906 6.51918C0.923313 6.4062 0.629531 6.32146 0.601552 6.36383C0.503625 6.46269 0.839375 7.74792 1.10518 8.25636C1.46891 8.96253 2.21035 9.65457 3.02175 10.0641L3.70724 10.389L2.89584 10.4031C2.11243 10.4031 2.08445 10.4172 2.16839 10.7138C2.44818 11.6318 3.55336 12.6064 4.78444 13.0301L5.65179 13.3266L4.89636 13.7786C3.77719 14.4283 2.46217 14.7955 1.14715 14.8237C0.517615 14.8378 0 14.8943 0 14.9367C0 15.0779 1.70673 15.8689 2.69999 16.1796C5.67977 17.0976 9.21914 16.7021 11.8772 15.1344C13.7658 14.0187 15.6543 11.8013 16.5357 9.65457C17.0113 8.51058 17.487 6.42032 17.487 5.41756C17.487 4.76789 17.529 4.68315 18.3124 3.90636C18.774 3.45441 19.2077 2.96009 19.2916 2.81886C19.4315 2.55052 19.4175 2.55052 18.7041 2.79061C17.515 3.21431 17.3471 3.15782 17.9347 2.52227C18.3683 2.07032 18.8859 1.25117 18.8859 1.01107C18.8859 0.968699 18.6761 1.03932 18.4383 1.16643C18.1865 1.30766 17.6269 1.51951 17.2072 1.64662L16.4518 1.88672L15.7663 1.42065C15.3885 1.16643 14.8569 0.883959 14.5772 0.799219C13.8637 0.601492 12.7725 0.629738 12.129 0.855712C10.3803 1.49126 9.2751 3.12957 9.401 4.92324Z" fill="#8D9AAD"/>
</svg>
