<svg width="633" height="581" viewBox="0 0 633 581" fill="none" xmlns="http://www.w3.org/2000/svg">
<g opacity="0.21">
<circle cx="69" cy="238" r="5" fill="#40C2FF"/>
<circle cx="99" cy="238" r="5" fill="#40C2FF"/>
<circle cx="129" cy="238" r="5" fill="#40C2FF"/>
<circle cx="159" cy="238" r="5" fill="#40C2FF"/>
<circle cx="189" cy="238" r="5" fill="#40C2FF"/>
<circle cx="219" cy="238" r="5" fill="#40C2FF"/>
<circle cx="249" cy="238" r="5" fill="#40C2FF"/>
<circle cx="279" cy="238" r="5" fill="#40C2FF"/>
<circle cx="309" cy="238" r="5" fill="#40C2FF"/>
<circle cx="339" cy="238" r="5" fill="#40C2FF"/>
<circle cx="69" cy="268" r="5" fill="#40C2FF"/>
<circle cx="99" cy="268" r="5" fill="#40C2FF"/>
<circle cx="129" cy="268" r="5" fill="#40C2FF"/>
<circle cx="159" cy="268" r="5" fill="#40C2FF"/>
<circle cx="189" cy="268" r="5" fill="#40C2FF"/>
<circle cx="219" cy="268" r="5" fill="#40C2FF"/>
<circle cx="249" cy="268" r="5" fill="#40C2FF"/>
<circle cx="279" cy="268" r="5" fill="#40C2FF"/>
<circle cx="309" cy="268" r="5" fill="#40C2FF"/>
<circle cx="339" cy="268" r="5" fill="#40C2FF"/>
<circle cx="69" cy="298" r="5" fill="#40C2FF"/>
<circle cx="99" cy="298" r="5" fill="#40C2FF"/>
<circle cx="129" cy="298" r="5" fill="#40C2FF"/>
<circle cx="159" cy="298" r="5" fill="#40C2FF"/>
<circle cx="189" cy="298" r="5" fill="#40C2FF"/>
<circle cx="219" cy="298" r="5" fill="#40C2FF"/>
<circle cx="249" cy="298" r="5" fill="#40C2FF"/>
<circle cx="279" cy="298" r="5" fill="#40C2FF"/>
<circle cx="309" cy="298" r="5" fill="#40C2FF"/>
<circle cx="339" cy="298" r="5" fill="#40C2FF"/>
<circle cx="69" cy="328" r="5" fill="#40C2FF"/>
<circle cx="99" cy="328" r="5" fill="#40C2FF"/>
<circle cx="129" cy="328" r="5" fill="#40C2FF"/>
<circle cx="159" cy="328" r="5" fill="#40C2FF"/>
<circle cx="189" cy="328" r="5" fill="#40C2FF"/>
<circle cx="219" cy="328" r="5" fill="#40C2FF"/>
<circle cx="249" cy="328" r="5" fill="#40C2FF"/>
<circle cx="279" cy="328" r="5" fill="#40C2FF"/>
<circle cx="309" cy="328" r="5" fill="#40C2FF"/>
<circle cx="339" cy="328" r="5" fill="#40C2FF"/>
<circle cx="69" cy="358" r="5" fill="#40C2FF"/>
<circle cx="99" cy="358" r="5" fill="#40C2FF"/>
<circle cx="129" cy="358" r="5" fill="#40C2FF"/>
<circle cx="159" cy="358" r="5" fill="#40C2FF"/>
<circle cx="189" cy="358" r="5" fill="#40C2FF"/>
<circle cx="219" cy="358" r="5" fill="#40C2FF"/>
<circle cx="249" cy="358" r="5" fill="#40C2FF"/>
<circle cx="279" cy="358" r="5" fill="#40C2FF"/>
<circle cx="309" cy="358" r="5" fill="#40C2FF"/>
<circle cx="339" cy="358" r="5" fill="#40C2FF"/>
<circle cx="69" cy="388" r="5" fill="#40C2FF"/>
<circle cx="99" cy="388" r="5" fill="#40C2FF"/>
<circle cx="129" cy="388" r="5" fill="#40C2FF"/>
<circle cx="159" cy="388" r="5" fill="#40C2FF"/>
<circle cx="189" cy="388" r="5" fill="#40C2FF"/>
<circle cx="219" cy="388" r="5" fill="#40C2FF"/>
<circle cx="249" cy="388" r="5" fill="#40C2FF"/>
<circle cx="279" cy="388" r="5" fill="#40C2FF"/>
<circle cx="309" cy="388" r="5" fill="#40C2FF"/>
<circle cx="339" cy="388" r="5" fill="#40C2FF"/>
<circle cx="69" cy="418" r="5" fill="#40C2FF"/>
<circle cx="99" cy="418" r="5" fill="#40C2FF"/>
<circle cx="129" cy="418" r="5" fill="#40C2FF"/>
<circle cx="159" cy="418" r="5" fill="#40C2FF"/>
<circle cx="189" cy="418" r="5" fill="#40C2FF"/>
<circle cx="219" cy="418" r="5" fill="#40C2FF"/>
<circle cx="249" cy="418" r="5" fill="#40C2FF"/>
<circle cx="279" cy="418" r="5" fill="#40C2FF"/>
<circle cx="309" cy="418" r="5" fill="#40C2FF"/>
<circle cx="339" cy="418" r="5" fill="#40C2FF"/>
<circle cx="69" cy="448" r="5" fill="#40C2FF"/>
<circle cx="99" cy="448" r="5" fill="#40C2FF"/>
<circle cx="129" cy="448" r="5" fill="#40C2FF"/>
<circle cx="159" cy="448" r="5" fill="#40C2FF"/>
<circle cx="189" cy="448" r="5" fill="#40C2FF"/>
<circle cx="219" cy="448" r="5" fill="#40C2FF"/>
<circle cx="249" cy="448" r="5" fill="#40C2FF"/>
<circle cx="279" cy="448" r="5" fill="#40C2FF"/>
<circle cx="309" cy="448" r="5" fill="#40C2FF"/>
<circle cx="339" cy="448" r="5" fill="#40C2FF"/>
<circle cx="69" cy="478" r="5" fill="#40C2FF"/>
<circle cx="99" cy="478" r="5" fill="#40C2FF"/>
<circle cx="129" cy="478" r="5" fill="#40C2FF"/>
<circle cx="159" cy="478" r="5" fill="#40C2FF"/>
<circle cx="189" cy="478" r="5" fill="#40C2FF"/>
<circle cx="219" cy="478" r="5" fill="#40C2FF"/>
<circle cx="249" cy="478" r="5" fill="#40C2FF"/>
<circle cx="279" cy="478" r="5" fill="#40C2FF"/>
<circle cx="309" cy="478" r="5" fill="#40C2FF"/>
<circle cx="339" cy="478" r="5" fill="#40C2FF"/>
<circle cx="69" cy="508" r="5" fill="#40C2FF"/>
<circle cx="99" cy="508" r="5" fill="#40C2FF"/>
<circle cx="129" cy="508" r="5" fill="#40C2FF"/>
<circle cx="159" cy="508" r="5" fill="#40C2FF"/>
<circle cx="189" cy="508" r="5" fill="#40C2FF"/>
<circle cx="219" cy="508" r="5" fill="#40C2FF"/>
<circle cx="249" cy="508" r="5" fill="#40C2FF"/>
<circle cx="279" cy="508" r="5" fill="#40C2FF"/>
<circle cx="309" cy="508" r="5" fill="#40C2FF"/>
<circle cx="339" cy="508" r="5" fill="#40C2FF"/>
</g>
<circle cx="454.25" cy="3.25" r="3.25" fill="#40C2FF"/>
<circle cx="473.75" cy="3.25" r="3.25" fill="#40C2FF"/>
<circle cx="493.25" cy="3.25" r="3.25" fill="#40C2FF"/>
<circle cx="512.75" cy="3.25" r="3.25" fill="#40C2FF"/>
<circle cx="532.25" cy="3.25" r="3.25" fill="#40C2FF"/>
<circle cx="551.75" cy="3.25" r="3.25" fill="#40C2FF"/>
<circle cx="571.25" cy="3.25" r="3.25" fill="#40C2FF"/>
<circle cx="590.75" cy="3.25" r="3.25" fill="#40C2FF"/>
<circle cx="610.25" cy="3.25" r="3.25" fill="#40C2FF"/>
<circle cx="629.75" cy="3.25" r="3.25" fill="#40C2FF"/>
<circle cx="454.25" cy="22.75" r="3.25" fill="#40C2FF"/>
<circle cx="473.75" cy="22.75" r="3.25" fill="#40C2FF"/>
<circle cx="493.25" cy="22.75" r="3.25" fill="#40C2FF"/>
<circle cx="512.75" cy="22.75" r="3.25" fill="#40C2FF"/>
<circle cx="532.25" cy="22.75" r="3.25" fill="#40C2FF"/>
<circle cx="551.75" cy="22.75" r="3.25" fill="#40C2FF"/>
<circle cx="571.25" cy="22.75" r="3.25" fill="#40C2FF"/>
<circle cx="590.75" cy="22.75" r="3.25" fill="#40C2FF"/>
<circle cx="610.25" cy="22.75" r="3.25" fill="#40C2FF"/>
<circle cx="629.75" cy="22.75" r="3.25" fill="#40C2FF"/>
<circle cx="454.25" cy="42.25" r="3.25" fill="#40C2FF"/>
<circle cx="473.75" cy="42.25" r="3.25" fill="#40C2FF"/>
<circle cx="493.25" cy="42.25" r="3.25" fill="#40C2FF"/>
<circle cx="512.75" cy="42.25" r="3.25" fill="#40C2FF"/>
<circle cx="532.25" cy="42.25" r="3.25" fill="#40C2FF"/>
<circle cx="551.75" cy="42.25" r="3.25" fill="#40C2FF"/>
<circle cx="571.25" cy="42.25" r="3.25" fill="#40C2FF"/>
<circle cx="590.75" cy="42.25" r="3.25" fill="#40C2FF"/>
<circle cx="610.25" cy="42.25" r="3.25" fill="#40C2FF"/>
<circle cx="629.75" cy="42.25" r="3.25" fill="#40C2FF"/>
<circle cx="454.25" cy="61.75" r="3.25" fill="#40C2FF"/>
<circle cx="473.75" cy="61.75" r="3.25" fill="#40C2FF"/>
<circle cx="493.25" cy="61.75" r="3.25" fill="#40C2FF"/>
<circle cx="512.75" cy="61.75" r="3.25" fill="#40C2FF"/>
<circle cx="532.25" cy="61.75" r="3.25" fill="#40C2FF"/>
<circle cx="551.75" cy="61.75" r="3.25" fill="#40C2FF"/>
<circle cx="571.25" cy="61.75" r="3.25" fill="#40C2FF"/>
<circle cx="590.75" cy="61.75" r="3.25" fill="#40C2FF"/>
<circle cx="610.25" cy="61.75" r="3.25" fill="#40C2FF"/>
<circle cx="629.75" cy="61.75" r="3.25" fill="#40C2FF"/>
<circle cx="454.25" cy="81.25" r="3.25" fill="#40C2FF"/>
<circle cx="473.75" cy="81.25" r="3.25" fill="#40C2FF"/>
<circle cx="493.25" cy="81.25" r="3.25" fill="#40C2FF"/>
<circle cx="512.75" cy="81.25" r="3.25" fill="#40C2FF"/>
<circle cx="532.25" cy="81.25" r="3.25" fill="#40C2FF"/>
<circle cx="551.75" cy="81.25" r="3.25" fill="#40C2FF"/>
<circle cx="571.25" cy="81.25" r="3.25" fill="#40C2FF"/>
<circle cx="590.75" cy="81.25" r="3.25" fill="#40C2FF"/>
<circle cx="610.25" cy="81.25" r="3.25" fill="#40C2FF"/>
<circle cx="629.75" cy="81.25" r="3.25" fill="#40C2FF"/>
<circle cx="454.25" cy="100.75" r="3.25" fill="#40C2FF"/>
<circle cx="473.75" cy="100.75" r="3.25" fill="#40C2FF"/>
<circle cx="493.25" cy="100.75" r="3.25" fill="#40C2FF"/>
<circle cx="512.75" cy="100.75" r="3.25" fill="#40C2FF"/>
<circle cx="532.25" cy="100.75" r="3.25" fill="#40C2FF"/>
<circle cx="551.75" cy="100.75" r="3.25" fill="#40C2FF"/>
<circle cx="571.25" cy="100.75" r="3.25" fill="#40C2FF"/>
<circle cx="590.75" cy="100.75" r="3.25" fill="#40C2FF"/>
<circle cx="610.25" cy="100.75" r="3.25" fill="#40C2FF"/>
<circle cx="629.75" cy="100.75" r="3.25" fill="#40C2FF"/>
<circle cx="454.25" cy="120.25" r="3.25" fill="#40C2FF"/>
<circle cx="473.75" cy="120.25" r="3.25" fill="#40C2FF"/>
<circle cx="493.25" cy="120.25" r="3.25" fill="#40C2FF"/>
<circle cx="512.75" cy="120.25" r="3.25" fill="#40C2FF"/>
<circle cx="532.25" cy="120.25" r="3.25" fill="#40C2FF"/>
<circle cx="551.75" cy="120.25" r="3.25" fill="#40C2FF"/>
<circle cx="571.25" cy="120.25" r="3.25" fill="#40C2FF"/>
<circle cx="590.75" cy="120.25" r="3.25" fill="#40C2FF"/>
<circle cx="610.25" cy="120.25" r="3.25" fill="#40C2FF"/>
<circle cx="629.75" cy="120.25" r="3.25" fill="#40C2FF"/>
<circle cx="454.25" cy="139.75" r="3.25" fill="#40C2FF"/>
<circle cx="473.75" cy="139.75" r="3.25" fill="#40C2FF"/>
<circle cx="493.25" cy="139.75" r="3.25" fill="#40C2FF"/>
<circle cx="512.75" cy="139.75" r="3.25" fill="#40C2FF"/>
<circle cx="532.25" cy="139.75" r="3.25" fill="#40C2FF"/>
<circle cx="551.75" cy="139.75" r="3.25" fill="#40C2FF"/>
<circle cx="571.25" cy="139.75" r="3.25" fill="#40C2FF"/>
<circle cx="590.75" cy="139.75" r="3.25" fill="#40C2FF"/>
<circle cx="610.25" cy="139.75" r="3.25" fill="#40C2FF"/>
<circle cx="629.75" cy="139.75" r="3.25" fill="#40C2FF"/>
<circle cx="454.25" cy="159.25" r="3.25" fill="#40C2FF"/>
<circle cx="473.75" cy="159.25" r="3.25" fill="#40C2FF"/>
<circle cx="493.25" cy="159.25" r="3.25" fill="#40C2FF"/>
<circle cx="512.75" cy="159.25" r="3.25" fill="#40C2FF"/>
<circle cx="532.25" cy="159.25" r="3.25" fill="#40C2FF"/>
<circle cx="551.75" cy="159.25" r="3.25" fill="#40C2FF"/>
<circle cx="571.25" cy="159.25" r="3.25" fill="#40C2FF"/>
<circle cx="590.75" cy="159.25" r="3.25" fill="#40C2FF"/>
<circle cx="610.25" cy="159.25" r="3.25" fill="#40C2FF"/>
<circle cx="629.75" cy="159.25" r="3.25" fill="#40C2FF"/>
<circle cx="454.25" cy="178.75" r="3.25" fill="#40C2FF"/>
<circle cx="473.75" cy="178.75" r="3.25" fill="#40C2FF"/>
<circle cx="493.25" cy="178.75" r="3.25" fill="#40C2FF"/>
<circle cx="512.75" cy="178.75" r="3.25" fill="#40C2FF"/>
<circle cx="532.25" cy="178.75" r="3.25" fill="#40C2FF"/>
<circle cx="551.75" cy="178.75" r="3.25" fill="#40C2FF"/>
<circle cx="571.25" cy="178.75" r="3.25" fill="#40C2FF"/>
<circle cx="590.75" cy="178.75" r="3.25" fill="#40C2FF"/>
<circle cx="610.25" cy="178.75" r="3.25" fill="#40C2FF"/>
<circle cx="629.75" cy="178.75" r="3.25" fill="#40C2FF"/>
<path d="M0 52C0 43.1635 7.16344 36 16 36H583C591.837 36 599 43.1634 599 52V64.0234H0V52Z" fill="#EDF1F8"/>
<circle cx="20.3169" cy="50.0117" r="3.50292" fill="#8D9AAD"/>
<circle cx="35.7297" cy="50.0117" r="3.50292" fill="#8D9AAD"/>
<circle cx="51.1426" cy="50.0117" r="3.50292" fill="#8D9AAD"/>
<path d="M563.495 557.495C594.835 526.154 594.835 475.341 563.495 444L450 557.495C481.341 588.835 532.154 588.835 563.495 557.495Z" fill="#40C2FF"/>
<circle cx="508.175" cy="503.44" r="24.029" fill="#2052C7"/>
</svg>
