<svg width="24" height="21" viewBox="0 0 24 21" fill="none" xmlns="http://www.w3.org/2000/svg">
<path fill-rule="evenodd" clip-rule="evenodd" d="M23.9883 4.80167C23.8815 7.13779 22.25 10.336 19.0936 14.3963C15.8306 18.636 13.0697 20.7568 10.8121 20.7568C9.41256 20.7568 8.22886 19.4663 7.26159 16.8833C6.61592 14.5156 5.97079 12.1482 5.32484 9.78056C4.60637 7.19896 3.83643 5.90677 3.01224 5.90677C2.83262 5.90677 2.20438 6.28455 1.12862 7.03678L0 5.58268C1.18453 4.54235 2.35273 3.50174 3.5021 2.45974C5.08184 1.09532 6.26858 0.377132 7.05901 0.304898C8.92602 0.125282 10.0757 1.40169 10.5071 4.13413C10.9735 7.08272 11.2965 8.91624 11.4775 9.63388C12.0166 12.0801 12.6091 13.302 13.2559 13.302C13.7577 13.302 14.5127 12.5088 15.519 10.9214C16.5233 9.33498 17.0619 8.12776 17.1344 7.29804C17.278 5.92891 16.7395 5.24255 15.519 5.24255C14.9444 5.24255 14.3519 5.37484 13.7424 5.6361C14.9223 1.77338 17.1756 -0.102767 20.5017 0.00433811C22.9676 0.0765721 24.1309 1.67568 23.9883 4.80167Z" fill="#8D9AAD"/>
</svg>
